<svg width="44" height="44" viewBox="0 0 44 44" fill="none" xmlns="http://www.w3.org/2000/svg">
<path d="M43.9999 22.1348C43.9999 9.90831 34.1494 -0.00268555 21.9999 -0.00268555C9.84488 6.44533e-05 -0.00561523 9.90832 -0.00561523 22.1376C-0.00561523 33.1843 8.04089 42.3418 18.5569 44.0028V28.5341H12.9744V22.1376H18.5624V17.2563C18.5624 11.7096 21.8486 8.64606 26.8729 8.64606C29.2819 8.64606 31.7981 9.07781 31.7981 9.07781V14.5228H29.0234C26.2926 14.5228 25.4401 16.2306 25.4401 17.9823V22.1348H31.5396L30.5661 28.5313H25.4374V44.0001C35.9534 42.3391 43.9999 33.1816 43.9999 22.1348Z" fill="#004777"/>
</svg>
