<svg width="43" height="43" viewBox="0 0 43 43" fill="none" xmlns="http://www.w3.org/2000/svg">
<path fill-rule="evenodd" clip-rule="evenodd" d="M13.7633 0.965252C16.1093 0.857252 16.8573 0.833252 22.8333 0.833252C28.8093 0.833252 29.5573 0.859252 31.9013 0.965252C34.2453 1.07125 35.8452 1.44525 37.2453 1.98725C38.7113 2.54125 40.0413 3.40725 41.1413 4.52725C42.2612 5.62525 43.1253 6.95325 43.6773 8.42125C44.2213 9.82125 44.5933 11.4213 44.7013 13.7613C44.8093 16.1113 44.8333 16.8593 44.8333 22.8333C44.8333 28.8093 44.8073 29.5573 44.7013 31.9033C44.5953 34.2433 44.2213 35.8433 43.6773 37.2433C43.1252 38.7114 42.2598 40.0416 41.1413 41.1413C40.0413 42.2612 38.7113 43.1253 37.2453 43.6773C35.8452 44.2213 34.2453 44.5933 31.9053 44.7013C29.5573 44.8093 28.8093 44.8333 22.8333 44.8333C16.8573 44.8333 16.1093 44.8073 13.7633 44.7013C11.4233 44.5953 9.82325 44.2213 8.42325 43.6773C6.95509 43.1252 5.62489 42.2598 4.52525 41.1413C3.40601 40.0426 2.53988 38.713 1.98725 37.2453C1.44525 35.8452 1.07325 34.2453 0.965252 31.9053C0.857252 29.5553 0.833252 28.8073 0.833252 22.8333C0.833252 16.8573 0.859252 16.1093 0.965252 13.7653C1.07125 11.4213 1.44525 9.82125 1.98725 8.42125C2.5407 6.95341 3.40749 5.62388 4.52725 4.52525C5.62533 3.40625 6.9542 2.54014 8.42125 1.98725C9.82125 1.44525 11.4213 1.07325 13.7613 0.965252H13.7633ZM31.7233 4.92525C29.4033 4.81925 28.7073 4.79725 22.8333 4.79725C16.9593 4.79725 16.2633 4.81925 13.9433 4.92525C11.7973 5.02325 10.6333 5.38125 9.85725 5.68325C8.83125 6.08325 8.09725 6.55725 7.32725 7.32725C6.59734 8.03736 6.03561 8.90182 5.68325 9.85725C5.38125 10.6333 5.02325 11.7973 4.92525 13.9433C4.81925 16.2633 4.79725 16.9593 4.79725 22.8333C4.79725 28.7073 4.81925 29.4033 4.92525 31.7233C5.02325 33.8693 5.38125 35.0333 5.68325 35.8093C6.03525 36.7633 6.59725 37.6293 7.32725 38.3393C8.03725 39.0693 8.90325 39.6313 9.85725 39.9833C10.6333 40.2853 11.7973 40.6433 13.9433 40.7413C16.2633 40.8473 16.9573 40.8693 22.8333 40.8693C28.7093 40.8693 29.4033 40.8473 31.7233 40.7413C33.8693 40.6433 35.0333 40.2853 35.8093 39.9833C36.8353 39.5833 37.5693 39.1093 38.3393 38.3393C39.0693 37.6293 39.6313 36.7633 39.9833 35.8093C40.2853 35.0333 40.6433 33.8693 40.7413 31.7233C40.8473 29.4033 40.8693 28.7073 40.8693 22.8333C40.8693 16.9593 40.8473 16.2633 40.7413 13.9433C40.6433 11.7973 40.2853 10.6333 39.9833 9.85725C39.5833 8.83125 39.1093 8.09725 38.3393 7.32725C37.6291 6.59739 36.7647 6.03567 35.8093 5.68325C35.0333 5.38125 33.8693 5.02325 31.7233 4.92525ZM20.0233 29.6153C21.5926 30.2685 23.34 30.3567 24.9671 29.8647C26.5942 29.3727 28 28.3311 28.9445 26.9177C29.8889 25.5044 30.3134 23.807 30.1453 22.1155C29.9773 20.4239 29.2273 18.8432 28.0233 17.6433C27.2557 16.8762 26.3277 16.2889 25.3059 15.9235C24.2842 15.5582 23.1941 15.424 22.1142 15.5305C21.0344 15.637 19.9916 15.9816 19.0609 16.5395C18.1302 17.0974 17.3347 17.8547 16.7319 18.757C16.129 19.6592 15.7336 20.6838 15.5743 21.7572C15.4149 22.8305 15.4956 23.9258 15.8103 24.9643C16.1251 26.0027 16.6662 26.9585 17.3947 27.7627C18.1232 28.5669 19.0209 29.1996 20.0233 29.6153ZM14.8373 14.8373C15.8873 13.7872 17.1339 12.9543 18.5058 12.386C19.8778 11.8177 21.3483 11.5252 22.8333 11.5252C24.3182 11.5252 25.7887 11.8177 27.1607 12.386C28.5326 12.9543 29.7792 13.7872 30.8293 14.8373C31.8793 15.8873 32.7122 17.1339 33.2805 18.5058C33.8488 19.8778 34.1413 21.3483 34.1413 22.8333C34.1413 24.3182 33.8488 25.7887 33.2805 27.1607C32.7122 28.5326 31.8793 29.7792 30.8293 30.8293C28.7086 32.9499 25.8323 34.1413 22.8333 34.1413C19.8342 34.1413 16.9579 32.9499 14.8373 30.8293C12.7166 28.7086 11.5252 25.8323 11.5252 22.8333C11.5252 19.8342 12.7166 16.9579 14.8373 14.8373ZM36.6493 13.2093C36.9095 12.9638 37.1178 12.6686 37.2619 12.3412C37.4059 12.0138 37.4829 11.6608 37.4881 11.3031C37.4933 10.9454 37.4267 10.5903 37.2922 10.2589C37.1577 9.9274 36.9581 9.62627 36.7052 9.37333C36.4522 9.12039 36.1511 8.92077 35.8196 8.78629C35.4882 8.65181 35.1331 8.5852 34.7754 8.59042C34.4177 8.59563 34.0647 8.67256 33.7373 8.81664C33.4099 8.96073 33.1147 9.16904 32.8693 9.42925C32.3919 9.93531 32.1305 10.6075 32.1407 11.3031C32.1508 11.9987 32.4316 12.663 32.9236 13.1549C33.4155 13.6469 34.0798 13.9277 34.7754 13.9378C35.471 13.948 36.1432 13.6866 36.6493 13.2093Z" fill="url(#paint0_linear_40_178)"/>
<defs>
<linearGradient id="paint0_linear_40_178" x1="22.8333" y1="0.833252" x2="22.8333" y2="44.8333" gradientUnits="userSpaceOnUse">
<stop stop-color="#FEDA75"/>
<stop offset="0.25" stop-color="#FA7E1E" stop-opacity="0.900268"/>
<stop offset="0.5" stop-color="#D62976" stop-opacity="0.869737"/>
<stop offset="0.75" stop-color="#962FBF" stop-opacity="0.744792"/>
<stop offset="1" stop-color="#4F5BD5" stop-opacity="0"/>
</linearGradient>
</defs>
</svg>
