<svg width="44" height="44" viewBox="0 0 44 44" fill="none" xmlns="http://www.w3.org/2000/svg">
<path fill-rule="evenodd" clip-rule="evenodd" d="M37.5891 6.39507C35.5595 4.36189 33.1448 2.74974 30.4848 1.65201C27.8248 0.554275 24.9723 -0.00721407 22.0927 6.99713e-05C10.0177 6.99713e-05 0.187909 9.7808 0.183028 21.8033C0.183028 25.6456 1.1909 29.3957 3.10659 32.7037L0 44L11.6137 40.9664C14.8262 42.7069 18.4253 43.6195 22.0829 43.6211H22.0927C34.1652 43.6211 43.995 33.8404 43.9999 21.8179C44.0082 18.9531 43.4459 16.1151 42.3455 13.4678C41.2452 10.8206 39.6285 8.41673 37.5891 6.39507ZM22.0927 39.9415H22.0854C18.8239 39.9418 15.6224 39.0685 12.8168 37.4131L12.1531 37.0197L5.26144 38.8194L7.09904 32.1329L6.6671 31.448C4.84362 28.5588 3.87832 25.2152 3.88263 21.8033C3.88751 11.8113 12.0554 3.68211 22.1 3.68211C24.4922 3.67682 26.8617 4.14378 29.0713 5.05596C31.2809 5.96814 33.2869 7.30742 34.973 8.9963C36.6681 10.6771 38.0117 12.6757 38.9261 14.8764C39.8405 17.0771 40.3076 19.4364 40.3003 21.8179C40.2954 31.8099 32.1275 39.9415 22.0927 39.9415ZM32.0811 26.367C31.532 26.0925 28.8428 24.7761 28.34 24.594C27.8398 24.4118 27.4762 24.322 27.1101 24.866C26.744 25.4101 25.6947 26.6366 25.375 27.0009C25.0553 27.3652 24.7356 27.4089 24.189 27.1369C23.6423 26.8649 21.8779 26.2893 19.7865 24.4337C18.1588 22.9886 17.0606 21.2058 16.741 20.6593C16.4213 20.1129 16.7068 19.819 16.9825 19.547C17.229 19.3041 17.5292 18.9106 17.8025 18.5924C18.0758 18.2743 18.1661 18.0484 18.3492 17.6841C18.5322 17.3198 18.4419 17.0016 18.3028 16.7296C18.1661 16.4551 17.0704 13.7737 16.6141 12.6832C16.1723 11.6267 15.7209 11.7675 15.3841 11.753C15.0353 11.7388 14.6863 11.7323 14.3372 11.7335C14.0596 11.7406 13.7865 11.8046 13.5349 11.9217C13.2834 12.0387 13.0589 12.2062 12.8754 12.4136C12.3727 12.9601 10.9597 14.2765 10.9597 16.9579C10.9597 19.6393 12.9218 22.2308 13.1951 22.5951C13.4684 22.9594 17.0558 28.4606 22.5466 30.8214C23.8546 31.3824 24.8747 31.7176 25.6678 31.9702C26.9783 32.3855 28.1717 32.3248 29.1161 32.1864C30.1679 32.0309 32.3545 30.87 32.8108 29.5973C33.2672 28.3246 33.2672 27.2341 33.1305 27.0058C32.9938 26.7775 32.6253 26.639 32.0811 26.367Z" fill="#18C92A"/>
</svg>
