<svg width="44" height="44" viewBox="0 0 44 44" fill="none" xmlns="http://www.w3.org/2000/svg">
<path d="M43.9957 5.20862C42.3482 6.10677 40.6008 6.69632 38.8114 6.95765C40.6752 5.58296 42.1063 3.40607 42.7801 0.81234C41.0084 2.10621 39.0699 3.01783 37.0485 3.5078C35.4019 1.34911 33.0562 0 30.46 0C25.4751 0 21.4335 4.97344 21.4335 11.1075C21.4335 11.9783 21.5134 12.8259 21.6672 13.6391C14.1656 13.1757 7.51467 8.75364 3.06269 2.03328C2.28589 3.67382 1.84077 5.58211 1.84077 7.61751C1.84077 11.4713 3.43441 14.871 5.85624 16.8631C4.42286 16.8078 3.02101 16.3314 1.76773 15.4736C1.76722 15.5201 1.76722 15.5666 1.76722 15.6134C1.76722 20.9952 4.87854 25.4848 9.0076 26.5052C7.67843 26.9501 6.28422 27.0152 4.93147 26.6955C6.08 31.1085 9.41353 34.3198 13.3632 34.4097C10.274 37.3888 6.38195 39.1647 2.15321 39.1647C1.42453 39.1647 0.706165 39.112 0 39.0094C3.9945 42.1611 8.73899 44 13.8363 44C30.439 44 39.5178 27.0741 39.5178 12.3957C39.5178 11.914 39.5092 11.4349 39.4916 10.9587C41.2587 9.3866 42.784 7.43946 43.9957 5.20862Z" fill="#55ACEE"/>
</svg>
